<mxfile host="app.diagrams.net" modified="2023-06-02T10:49:34.006Z" agent="Mozilla/5.0 (Macintosh; Intel Mac OS X 10_15_7) AppleWebKit/537.36 (KHTML, like Gecko) Chrome/113.0.0.0 Safari/537.36" version="21.3.3" etag="QrNTjO76bQMVRrLMKfzq" type="github">
  <diagram name="หน้า-1" id="GU7amIym-Dclc60_CBEp">
    <mxGraphModel>
      <root>
        <mxCell id="0" />
        <mxCell id="1" parent="0" />
      </root>
    </mxGraphModel>
  </diagram>
</mxfile>
